# xmcd
#
# Track frame offsets: 
#        150
#        7002
#        21614
#        38221
#        48971
#        59786
#        69573
#        83275
#        93691
#        105634
#        119518
#        131167
#        141030
#        155348
#        164500
#        168323
#        178379
#
# Disc length: 2428 seconds
#
# Revision: 0
# Processed by: cddbd v1.5.2PL0 Copyright (c) Steve Scherf et al.
# Submitted via: ExactAudioCopy v0.95b3
#
DISCID=f4097a11
DTITLE=The Beatles  - At Hollywood Bowl - Deluxe - Purple Chick - Disc
DTITLE=1
DYEAR=1900
DGENRE=
TTITLE0=Twist And Shout
TTITLE1=She's A Woman
TTITLE2=Dizzy Miss Lizzy
TTITLE3=Ticket To Ride
TTITLE4=Can't Buy Me Love
TTITLE5=Things We Said Today
TTITLE6=Roll Over Beethoven
TTITLE7=Baby's In Black
TTITLE8=Boys
TTITLE9=A Hard Day's Night
TTITLE10=Help
TTITLE11=All My Loving
TTITLE12=She Loves You
TTITLE13=Long Tall Sally
TTITLE14=Twist and Shout (1964 stereo)
TTITLE15=All My Loving (ant dvd)
TTITLE16=Twist and Shout (1964 mono)
EXTD=
EXTT0=
EXTT1=
EXTT2=
EXTT3=
EXTT4=
EXTT5=
EXTT6=
EXTT7=
EXTT8=
EXTT9=
EXTT10=
EXTT11=
EXTT12=
EXTT13=
EXTT14=
EXTT15=
EXTT16=
PLAYORDER=
